<?xml version="1.0" encoding="UTF-8" standalone="no"?>
<!-- Created with Inkscape (http://www.inkscape.org/) -->

<svg
   xmlns:dc="http://purl.org/dc/elements/1.1/"
   xmlns:cc="http://creativecommons.org/ns#"
   xmlns:rdf="http://www.w3.org/1999/02/22-rdf-syntax-ns#"
   xmlns:svg="http://www.w3.org/2000/svg"
   xmlns="http://www.w3.org/2000/svg"
   xmlns:sodipodi="http://sodipodi.sourceforge.net/DTD/sodipodi-0.dtd"
   xmlns:inkscape="http://www.inkscape.org/namespaces/inkscape"
   width="10.74808mm"
   height="10.639778mm"
   viewBox="0 0 38.083746 37.700002"
   id="svg7106"
   version="1.1"
   inkscape:version="0.91 r13725"
   sodipodi:docname="facebook.svg">
  <defs
     id="defs7108">
    <clipPath
       clipPathUnits="userSpaceOnUse"
       id="clipPath2534">
      <path
         d="m 0,2086 960,0 L 960,0 0,0 0,2086 Z"
         id="path2536"
         inkscape:connector-curvature="0" />
    </clipPath>
  </defs>
  <sodipodi:namedview
     id="base"
     pagecolor="#ffffff"
     bordercolor="#666666"
     borderopacity="1.0"
     inkscape:pageopacity="0.0"
     inkscape:pageshadow="2"
     inkscape:zoom="1.4"
     inkscape:cx="-13.525696"
     inkscape:cy="112.59522"
     inkscape:document-units="px"
     inkscape:current-layer="layer1"
     showgrid="false"
     fit-margin-top="0"
     fit-margin-left="0"
     fit-margin-right="0"
     fit-margin-bottom="0"
     inkscape:window-width="1920"
     inkscape:window-height="1053"
     inkscape:window-x="1080"
     inkscape:window-y="27"
     inkscape:window-maximized="1" />
  <metadata
     id="metadata7111">
    <rdf:RDF>
      <cc:Work
         rdf:about="">
        <dc:format>image/svg+xml</dc:format>
        <dc:type
           rdf:resource="http://purl.org/dc/dcmitype/StillImage" />
        <dc:title></dc:title>
      </cc:Work>
    </rdf:RDF>
  </metadata>
  <g
     inkscape:label="Layer 1"
     inkscape:groupmode="layer"
     id="layer1"
     transform="translate(245.77915,-924.26122)">
    <g
       id="g2934"
       transform="matrix(1.25,0,0,-1.25,-212.4554,924.26122)">
      <path
         d="m 0,0 -22.851,0 c -2.285,0 -3.808,-1.508 -3.808,-3.77 l 0,-22.62 c 0,-2.262 1.523,-3.77 3.808,-3.77 l 11.426,0 0,10.556 -3.809,0 0,4.524 3.809,0 0,3.016 c 0,3.016 3.046,6.032 6.093,6.032 l 3.809,0 0,-5.278 -3.047,0 c -0.762,0 -1.524,-0.754 -1.524,-0.754 l 0,-3.016 4.571,0 0,-4.524 -4.571,0 0,-10.556 6.094,0 c 2.285,0 3.808,1.508 3.808,3.77 l 0,22.62 C 3.808,-1.508 2.285,0 0,0"
         style="fill:#ffffff;fill-opacity:1;fill-rule:evenodd;stroke:none"
         id="path2936"
         inkscape:connector-curvature="0" />
    </g>
  </g>
</svg>
